<svg xmlns="http://www.w3.org/2000/svg" xmlns:xlink="http://www.w3.org/1999/xlink" width="100" height="100" viewBox="0 0 100 100">
  <defs>
    <clipPath id="clip-path">
      <rect id="Rectangle_3" data-name="Rectangle 3" width="81.601" height="80.778" fill="none"/>
    </clipPath>
    <clipPath id="clip-Design">
      <rect width="100" height="100"/>
    </clipPath>
  </defs>
  <g id="Design" clip-path="url(#clip-Design)">
    <g id="Group_4" data-name="Group 4" transform="translate(9 10)">
      <g id="Group_3" data-name="Group 3" clip-path="url(#clip-path)">
        <path id="Path_25" data-name="Path 25" d="M52.828,67.616c.448,1.429.889,2.8,1.306,4.182.105.347.343.313.606.321a10.53,10.53,0,0,1,2.6.159,4.332,4.332,0,0,1,3.16,4.457,4.28,4.28,0,0,1-3.652,3.957,6.539,6.539,0,0,1-.953.08q-15.077.006-30.154,0a4.336,4.336,0,1,1-.461-8.659c.7-.034,1.582.315,2.069-.184a4.964,4.964,0,0,0,.7-1.934c.243-.767.473-1.539.729-2.379H27.758q-9.369,0-18.737,0c-5.393,0-9.018-3.621-9.019-9Q0,33.737,0,8.856C0,3.58,3.57,0,8.853,0Q40.793,0,72.734,0C78.032,0,81.6,3.562,81.6,8.84q.005,24.663,0,49.326A9.09,9.09,0,0,1,73.91,67.5a11.684,11.684,0,0,1-2,.11q-9.02.012-18.04,0Zm-12.1-14.2q18.7,0,37.393.016c.694,0,.937-.127.935-.882q-.035-21.834-.019-43.669c0-3.953-2.392-6.324-6.358-6.324q-31.859,0-63.717,0c-4.025,0-6.408,2.36-6.409,6.362Q2.552,30.713,2.536,52.5c0,.805.246.932.977.931q18.609-.034,37.219-.016m.1,8.932a2.6,2.6,0,0,0,2.523-2.582,2.559,2.559,0,0,0-5.117.067,2.607,2.607,0,0,0,2.594,2.515" transform="translate(0 0)" fill="#020202"/>
        <path id="Path_26" data-name="Path 26" d="M184.7,93.764c2.719,1.569,5.319,3.071,7.92,4.57,1.53.883,3.059,1.767,4.593,2.641a.822.822,0,0,1,.541.786c-.017,4.812-.01,9.623-.01,14.441-.37.052-.582-.183-.819-.32-3.839-2.211-7.666-4.442-11.514-6.638a1.194,1.194,0,0,1-.728-1.2c.031-4.7.017-9.4.017-14.279" transform="translate(-141.651 -71.918)" fill="#020202"/>
        <path id="Path_27" data-name="Path 27" d="M251.548,116.584c0-4.88,0-9.644-.005-14.408a.823.823,0,0,1,.42-.854q6.258-3.579,12.5-7.192c.243.2.129.445.129.651q.013,6.8.008,13.6c0,.408.01.747-.448,1.009-4.078,2.326-8.138,4.683-12.2,7.029-.095.055-.2.086-.4.17" transform="translate(-192.937 -72.198)" fill="#020202"/>
        <path id="Path_28" data-name="Path 28" d="M190.353,59.8c4.249-2.457,8.384-4.845,12.513-7.245a.812.812,0,0,1,.945-.03q6.113,3.567,12.247,7.1a3.182,3.182,0,0,1,.274.215c-.558.326-1.069.629-1.584.926-3.611,2.084-7.225,4.161-10.827,6.259a.921.921,0,0,1-1.088.022c-4.025-2.35-8.068-4.67-12.105-7-.094-.054-.181-.119-.375-.248" transform="translate(-146.003 -40.185)" fill="#020202"/>
        <path id="Path_29" data-name="Path 29" d="M47.017,129.819c-.811,0-1.624.027-2.434-.007a1.933,1.933,0,0,1-1.942-1.934q-.059-2.042,0-4.086a1.974,1.974,0,0,1,2.012-1.98c1.592-.049,3.189-.053,4.781,0a1.94,1.94,0,0,1,1.986,2c.056,1.331.059,2.667,0,4a1.962,1.962,0,0,1-2.144,2.008c-.753.016-1.507,0-2.261,0v-.007" transform="translate(-32.683 -93.403)" fill="#030303"/>
        <path id="Path_30" data-name="Path 30" d="M104.378,179.5c-.755,0-1.511.023-2.265-.005a1.983,1.983,0,0,1-2.136-2.12c-.03-1.277-.032-2.556.005-3.832a1.916,1.916,0,0,1,2.02-2.043q2.35-.069,4.7,0a1.952,1.952,0,0,1,2.052,2.105c.019,1.277.021,2.556,0,3.833a1.978,1.978,0,0,1-1.938,2.051c-.058.006-.116.011-.174.012h-2.265" transform="translate(-76.666 -131.513)" fill="#020202"/>
        <path id="Path_31" data-name="Path 31" d="M103.293,129.2c-.811,0-1.624.028-2.434-.007a2.231,2.231,0,0,1-2.213-2.222q-.059-2.084,0-4.172a2.141,2.141,0,0,1,2.047-2.188c1.762-.081,3.534-.081,5.3,0a2.166,2.166,0,0,1,2.061,2.188c.049,1.389.051,2.783,0,4.172a2.283,2.283,0,0,1-2.323,2.223c-.811.027-1.623,0-2.434,0v0m-.055-2.547c.682,0,1.232-.02,1.78.007.389.019.495-.136.486-.5-.021-.838-.036-1.678,0-2.514.024-.493-.189-.567-.607-.554-.808.026-1.618.007-2.427.007-1.323,0-1.339,0-1.316,1.306.012.716-.309,1.629.13,2.1s1.372.071,1.95.154" transform="translate(-75.641 -92.463)" fill="#050505"/>
        <path id="Path_32" data-name="Path 32" d="M51.346,93.208c3.427,0,6.854.005,10.28,0,.75,0,1.321.225,1.494,1.019a1.192,1.192,0,0,1-.984,1.484,4.939,4.939,0,0,1-.953.058q-9.845,0-19.689,0c-.2,0-.407.008-.609-.008-.87-.07-1.349-.531-1.347-1.284,0-.784.519-1.26,1.441-1.263,3.456-.01,6.912,0,10.367,0" transform="translate(-30.326 -71.489)" fill="#080808"/>
        <path id="Path_33" data-name="Path 33" d="M51.269,68.338H41.337a3.467,3.467,0,0,1-.695-.02,1.2,1.2,0,0,1-1.088-1.169,1.188,1.188,0,0,1,1-1.328,3.645,3.645,0,0,1,.865-.051q9.932,0,19.864,0a3.87,3.87,0,0,1,.781.029,1.272,1.272,0,0,1-.077,2.527,4.877,4.877,0,0,1-.7.012H51.269" transform="translate(-30.336 -50.442)" fill="#070707"/>
        <path id="Path_34" data-name="Path 34" d="M45.852,178.8c-.813,0-1.628.036-2.439-.007a2.248,2.248,0,0,1-2.239-2.217c-.051-1.392-.055-2.789,0-4.181a2.245,2.245,0,0,1,2.26-2.2q2.438-.054,4.878,0a2.216,2.216,0,0,1,2.265,2.266q.056,2.045,0,4.094a2.2,2.2,0,0,1-2.2,2.235c-.84.045-1.684.009-2.526.009m.047-6.136c-.69.033-1.6-.19-2.011.166-.483.42-.1,1.362-.162,2.075-.012.144.017.293,0,.435-.113.721.091,1.067.913.967a17.5,17.5,0,0,1,2.087-.017c1.359,0,1.359,0,1.359-1.379,0-2.215,0-2.215-2.18-2.246" transform="translate(-31.551 -130.524)" fill="#020202"/>
        <path id="Path_35" data-name="Path 35" d="M51.3,41.062q-4.876,0-9.753,0a5.447,5.447,0,0,1-.955-.043,1.141,1.141,0,0,1-1.016-1.3,1.154,1.154,0,0,1,1.069-1.169,3.211,3.211,0,0,1,.521-.02q10.188,0,20.376,0a3.012,3.012,0,0,1,.608.028,1.159,1.159,0,0,1,1.017,1.216,1.134,1.134,0,0,1-.987,1.235,5,5,0,0,1-.954.048q-4.963,0-9.927,0" transform="translate(-30.351 -29.554)"/>
      </g>
    </g>
  </g>
</svg>
